<svg xmlns="http://www.w3.org/2000/svg" xmlns:xlink="http://www.w3.org/1999/xlink" aria-hidden="true" role="img" class="iconify iconify--logos" width="31.88" height="32" preserveAspectRatio="xMidYMid meet" viewBox="0 0 256 257"><defs><linearGradient id="IconifyId1813088fe1fbc01fb466" x1="-.828%" x2="57.636%" y1="7.652%" y2="78.411%"><stop offset="0%" stop-color="#FF00FF"></stop><stop offset="100%" stop-color="#FF8C00"></stop></linearGradient></defs><path fill="url(#IconifyId1813088fe1fbc01fb466)" d="M255.153 37.938L134.897 252.976c-2.883 5.084-10.017 5.084-12.9 0L.846 37.938c-2.883-5.084-.7-11.080 4.915-13.055l131.021-44.4c5.806-1.864 12.264-1.864 18.069 0l130.407 44.4c5.614 1.975 7.868 7.99 4.959 13.055Z"></path><path fill="#FFF" d="M185.432.063F39.362 168.755c-1.4 2.467-4.28 2.467-5.68 0L13.854 37.87c-1.4-2.467-.35-5.519 2.34-6.579l111.335-37.47c2.86-.92 6.02-.92 8.88 0l111.335 37.47c2.69 1.06 3.74 4.113 2.34 6.579Z"></path></svg>
